HIERARCHY
ROOT Hips
{
	OFFSET 0.000000 0.000000 0.000000
	CHANNELS 6 Xposition Yposition Zposition Zrotation Yrotation Xrotation 
	JOINT LHipJoint
	{
		OFFSET 0.000000 0.000000 0.000000
		CHANNELS 3 Zrotation Yrotation Xrotation
		JOINT LeftUpLeg
		{
			OFFSET 1.363060 -1.794630 0.839290
			CHANNELS 3 Zrotation Yrotation Xrotation
			JOINT LeftLeg
			{
				OFFSET 2.448110 -6.726130 0.000000
				CHANNELS 3 Zrotation Yrotation Xrotation
				JOINT LeftFoot
				{
					OFFSET 2.562200 -7.039590 0.000000
					CHANNELS 3 Zrotation Yrotation Xrotation
					JOINT LeftToeBase
					{
						OFFSET 0.157640 -0.433110 2.322550
						CHANNELS 3 Zrotation Yrotation Xrotation
						End Site
						{
							OFFSET 0.000000 0.000000 0.000000
						}
					}
				}
			}
		}
	}
	JOINT RHipJoint
	{
		OFFSET 0.000000 0.000000 0.000000
		CHANNELS 3 Zrotation Yrotation Xrotation
		JOINT RightUpLeg
		{
			OFFSET -1.305520 -1.794630 0.839290
			CHANNELS 3 Zrotation Yrotation Xrotation
			JOINT RightLeg
			{
				OFFSET -2.542530 -6.985550 0.000000
				CHANNELS 3 Zrotation Yrotation Xrotation
				JOINT RightFoot
				{
					OFFSET -2.568260 -7.056230 0.000000
					CHANNELS 3 Zrotation Yrotation Xrotation
					JOINT RightToeBase
					{
						OFFSET -0.164730 -0.452590 2.363150
						CHANNELS 3 Zrotation Yrotation Xrotation
						End Site
						{
							OFFSET 0.000000 0.000000 0.000000
						}
					}
				}
			}
		}
	}
}
MOTION
Frames: 14
Frame Time: 0.008333
1.848033 17.467028 2.437802 -166.302331 -80.264962 -173.309933 -10.748974 1.302782 0.257615 -7.261634 5.571450 -15.299455 -2.123126 -0.893082 6.558395 0.973589 5.706750 -5.142783 0.281401 -0.000000 -37.371800 9.284593 -0.037773 -0.155143 11.313009 -1.564346 -45.002066 1.166289 -3.245740 42.509789 -0.774538 -3.104237 1.627905 -0.898900 0.000001 -53.365200
1.596483 17.448739 2.419034 -166.364097 -80.908530 -173.402695 -10.805256 1.427567 0.103135 -7.241127 6.064604 -13.862394 -2.177098 -0.900036 5.833271 0.858742 5.003887 -4.979383 0.253600 0.000001 -37.991601 9.146218 0.011744 0.004980 11.477923 -1.503851 -45.405590 1.532731 -3.007192 38.862551 -0.623715 -2.400543 1.850412 -0.833101 -0.000000 -53.636900
1.345485 17.420727 2.394942 -167.176890 -81.587835 -172.720837 -10.851685 1.542458 -0.067694 -7.283221 6.516900 -12.469993 -2.242492 -0.906480 5.222614 0.749609 4.280788 -4.930401 0.214100 -0.000000 -38.798400 9.028155 0.078555 0.210280 11.390318 -1.374007 -45.735572 1.895525 -2.718077 34.991125 -0.459103 -1.668583 2.246997 -0.761000 -0.000000 -53.797900
1.094712 17.383200 2.365919 -168.880691 -82.298066 -171.116657 -10.892821 1.643774 -0.250858 -7.373876 6.912573 -11.108546 -2.315937 -0.915403 4.696168 0.645459 3.542004 -4.972581 0.169200 0.000000 -39.841500 8.928065 0.163171 0.464754 11.047891 -1.171055 -46.014438 2.243941 -2.374243 30.925390 -0.288125 -0.948462 2.789078 -0.683501 -0.000000 -53.835799
0.844008 17.336484 2.332619 -171.639131 -83.035497 -168.425300 -10.931066 1.727118 -0.444587 -7.496450 7.242602 -9.762968 -2.393766 -0.928770 4.229669 0.545181 2.790279 -5.074495 0.125100 0.000000 -41.141000 8.844152 0.263998 0.768056 10.457629 -0.904726 -46.256960 2.566003 -1.973947 26.693916 -0.120535 -0.284159 3.437848 -0.604600 0.000000 -53.760000
0.593224 17.281081 2.295802 -175.706168 -83.797016 -164.397333 -10.962364 1.788298 -0.649421 -7.639182 7.496639 -8.404853 -2.472012 -0.948525 3.794913 0.448695 2.037656 -5.197533 0.086700 0.000000 -42.672900 8.778551 0.379380 1.112414 9.629648 -0.604814 -46.467095 2.846872 -1.520186 22.332653 0.033384 0.287485 4.147868 -0.529401 -0.000000 -53.601400
0.341939 17.217480 2.256255 178.618395 -84.584802 -158.735850 -10.972385 1.826438 -0.860032 -7.786324 7.665669 -7.033432 -2.547984 -0.975090 3.390828 0.355894 1.290166 -5.316771 0.056100 0.000000 -44.378000 8.740649 0.507907 1.489658 8.596314 -0.319000 -46.657363 3.070745 -1.021681 17.885203 0.164648 0.739875 4.879446 -0.464300 0.000000 -53.438000
0.089963 17.146326 2.214669 170.895681 -85.384294 -151.020554 -10.931977 1.848485 -1.073593 -7.924679 7.747709 -5.629544 -2.619904 -1.006099 3.012464 0.268044 0.562491 -5.410589 0.034000 -0.000000 -46.166100 8.753178 0.657933 1.877659 7.410914 -0.118796 -46.825447 3.221937 -0.497009 13.427576 0.270198 1.081707 5.590054 -0.408299 0.000000 -53.334900
-0.162582 17.068280 2.171660 160.678869 -86.133357 -140.836880 -10.802947 1.876717 -1.285465 -8.048528 7.733770 -4.148937 -2.685264 -1.034297 2.630139 0.190502 -0.098018 -5.460301 0.020100 0.000000 -47.931400 8.848506 0.856466 2.235601 6.160402 -0.086298 -46.961578 3.293746 0.024724 9.089752 0.357948 1.376435 6.226962 -0.346000 0.000000 -53.333299
-0.416365 16.984212 2.127899 148.037848 -86.717575 -128.273693 -10.587197 1.948446 -1.481631 -8.151063 7.657071 -2.610163 -2.745389 -1.044259 2.260858 0.125558 -0.679261 -5.476467 0.011700 -0.000000 -49.594700 9.032659 1.134455 2.523564 4.970435 -0.278924 -47.081369 3.306865 0.517259 5.027967 0.446511 1.718603 6.743565 -0.255900 -0.000000 -53.479800
-0.671690 16.895183 2.084038 133.924118 -87.022204 -114.302432 -10.346741 2.083018 -1.652019 -8.245734 7.551126 -1.022929 -2.799424 -1.025932 1.916987 0.074621 -1.165361 -5.467696 0.006600 -0.000000 -51.104400 9.257072 1.495921 2.705180 3.944073 -0.728106 -47.211850 3.302785 0.961272 1.406627 0.555862 2.209583 7.084256 -0.114899 -0.000000 -53.783099
-0.928863 16.802575 2.040632 120.052440 -87.026359 -100.645564 -10.154188 2.261695 -1.796002 -8.337581 7.434674 0.600622 -2.844045 -0.982743 1.626151 0.036366 -1.552638 -5.442774 0.003299 -0.000000 -52.445900 9.450928 1.900869 2.773198 3.135820 -1.426321 -47.383060 3.314744 1.346309 -1.661249 0.690731 2.889968 7.201008 0.082700 -0.000000 -54.228800
-1.188600 16.707936 1.998028 107.839984 -86.798370 -88.702476 -10.036441 2.451220 -1.921035 -8.403382 7.327741 2.217704 -2.877420 -0.923844 1.440879 0.007412 -1.861256 -5.422117 0.000800 -0.000000 -53.647800 9.576886 2.297405 2.756124 2.547158 -2.301199 -47.620291 3.348379 1.668806 -4.132727 0.836572 3.700673 7.073144 0.311200 0.000000 -54.762200
-1.451603 16.612732 1.956265 97.784597 -86.424935 -78.942403 -9.981068 2.629121 -2.033749 -8.416736 7.230844 3.784080 -2.898300 -0.855755 1.397669 -0.012962 -2.094218 -5.426153 -0.001100 0.000001 -54.767800 9.635674 2.651738 2.692494 2.137592 -3.239728 -47.933524 3.392013 1.926795 -5.995247 0.972097 4.527210 6.704593 0.528600 -0.000000 -55.288300
